<?xml version="1.0" encoding="iso-8859-1"?>
<!-- Generator: Adobe Illustrator 19.0.0, SVG Export Plug-In . SVG Version: 6.00 Build 0)  -->
<svg xmlns="http://www.w3.org/2000/svg" xmlns:xlink="http://www.w3.org/1999/xlink" version="1.1" id="Layer_1" x="0px" y="0px" viewBox="0 0 512 512" style="enable-background:new 0 0 512 512;" xml:space="preserve">
<path style="fill:#6B6968;" d="M256.002,257.898c-12.386,0-0.902,2.833-160.045-50.908c0,126.008-1.184,119.986,2.735,123.399  c83.802,60.883,225.887,61.438,310.954,2.6c3.219-2.226,6.402-3.901,6.402-9.097c0-25.411,0-93.102,0-116.901l-144.192,48.69  C267.479,257.159,261.74,257.898,256.002,257.898z"/>
<path style="fill:#51504E;" d="M98.692,330.389c43.297,31.463,101.291,46.222,157.308,46.222V257.899  c-12.386,0-1.31,2.693-160.043-50.909C95.957,332.998,94.773,326.976,98.692,330.389z"/>
<path style="fill:#44423F;" d="M497.771,171.687L271.855,95.398c-8.754-2.957-22.952-2.957-31.707,0L14.229,171.687  c-8.756,2.957-8.756,7.747,0,10.704l225.918,76.289c8.755,2.956,22.951,2.956,31.707,0l225.917-76.289  C506.529,179.433,506.529,174.643,497.771,171.687z"/>
<path style="fill:#3A3836;" d="M165.654,120.553L14.229,171.687c-8.756,2.957-8.756,7.747,0,10.704l225.918,76.289  c8.755,2.956,22.951,2.956,31.707,0l51.904-17.527C178.249,239.741,91.084,172.618,165.654,120.553z"/>
<path style="fill:#F9AE41;" d="M79.894,402.759c0,8.872-7.19,16.061-16.06,16.061l0,0c-8.871,0-16.061-7.189-16.061-16.061v-23.064  c0-8.864,7.184-16.062,16.061-16.062c8.87,0,16.06,7.191,16.06,16.062V402.759z"/>
<path style="fill:#F98821;" d="M63.833,402.759v-23.064c0-5.942,3.234-11.117,8.03-13.897c-10.699-6.198-24.091,1.556-24.091,13.897  v23.064c0,8.872,7.19,16.061,16.061,16.061c2.928,0,5.665-0.797,8.03-2.167C67.068,413.876,63.833,408.702,63.833,402.759z"/>
<path style="fill:#82807F;" d="M231.244,145.75c6.162,16.132,43.342,16.166,49.513,0c-2.664-11.206-12.734-19.544-24.754-19.544  C243.98,126.207,233.911,134.544,231.244,145.75z"/>
<path style="fill:#6B6968;" d="M258.891,126.389c-13.264-1.501-24.77,7.272-27.647,19.362c4.082,10.685,23.84,15.505,38.45,9.675  C257.578,151.527,252.234,137.317,258.891,126.389z"/>
<path d="M500.272,164.536L352.48,114.63c-3.926-1.329-8.18,0.781-9.505,4.706s0.781,8.18,4.706,9.505l142.605,48.155  l-220.824,74.569c-7.331,2.476-19.93,2.361-26.923,0.001l-155.024-52.35l139.624-45.732c5.629,7.28,16.448,11.893,28.863,11.893  c22.101,0,33.822-14.016,32.062-21.419c-7.3-30.698-49.435-34.333-62.137-5.861L63.789,191.204l-42.076-14.208l220.827-74.569  c7.172-2.422,19.752-2.422,26.922,0l52.446,17.711c3.924,1.323,8.18-0.781,9.505-4.706c1.325-3.924-0.781-8.18-4.706-9.505  l-52.446-17.711c-10.238-3.459-26.28-3.459-36.521,0l-226.014,76.32c-15.627,5.277-15.643,19.638,0,24.92l44.524,15.035v152.908  c-9.328,3.141-16.067,11.965-16.067,22.339v23.073c0,12.996,10.572,23.568,23.567,23.568s23.567-10.572,23.567-23.568v-23.073  c0-10.374-6.74-19.198-16.067-22.339V209.557l17.137,5.787v113.054c0,4.437,3.16,6.191,6.96,8.911  c89.25,63.883,239.346,61.964,325.286-2.926c1.877-1.417,2.98-3.633,2.98-5.985v-57.237c0-4.143-3.357-7.5-7.5-7.5  s-7.5,3.357-7.5,7.5v53.453c-37.503,27.121-89.812,43.107-145.115,44.437V267.984c8.439-0.883-1.303,1.867,145.115-47.576v26.086  c0,4.143,3.357,7.5,7.5,7.5s7.5-3.357,7.5-7.5v-31.152l76.657-25.886C515.9,184.178,515.919,169.817,500.272,164.536z   M272.625,144.785c-6.693,7.411-26.555,7.405-33.248,0C245.417,129.949,266.593,129.96,272.625,144.785z M72.319,402.811  c0,4.725-3.844,8.568-8.567,8.568s-8.567-3.844-8.567-8.568v-23.073c0-4.726,3.844-8.569,8.567-8.569s8.567,3.844,8.567,8.569  V402.811z M248.5,268.002v101.049c-50.128-1.206-104.191-14.843-145.111-44.437V220.409  C239.458,266.358,239.646,267.064,248.5,268.002z"/>
<g>
</g>
<g>
</g>
<g>
</g>
<g>
</g>
<g>
</g>
<g>
</g>
<g>
</g>
<g>
</g>
<g>
</g>
<g>
</g>
<g>
</g>
<g>
</g>
<g>
</g>
<g>
</g>
<g>
</g>
</svg>
